<?xml version="1.0" standalone="no"?>
<!DOCTYPE svg PUBLIC "-//W3C//DTD SVG 20010904//EN"
 "http://www.w3.org/TR/2001/REC-SVG-20010904/DTD/svg10.dtd">
<svg version="1.0" xmlns="http://www.w3.org/2000/svg"
 width="729.000000pt" height="924.000000pt" viewBox="0 0 729.000000 924.000000"
 preserveAspectRatio="xMidYMid meet">

<g transform="translate(0.000000,924.000000) scale(0.100000,-0.100000)"
fill="#000000" stroke="none">
<path d="M3320 7295 c-102 -7 -214 -18 -250 -25 -84 -15 -355 -91 -442 -124
-37 -14 -106 -36 -155 -50 -483 -136 -873 -485 -1013 -906 -126 -381 -78 -943
108 -1270 112 -197 268 -367 487 -532 82 -63 159 -103 176 -92 6 3 20 3 33 0
49 -12 50 -24 57 -591 4 -291 10 -568 14 -615 9 -99 -5 -170 -33 -170 -24 0
-197 227 -284 373 -41 67 -58 82 -58 49 0 -19 -18 -42 -32 -42 -5 0 -2 13 7
30 8 16 15 42 15 57 1 15 7 39 15 53 38 66 5 156 -71 194 -40 21 -41 22 -40
72 0 41 -6 60 -29 93 -37 54 -100 91 -151 90 -21 -1 -30 -3 -19 -6 66 -14 104
-36 135 -79 32 -44 37 -74 28 -138 -2 -13 5 -21 24 -27 46 -12 85 -47 102 -89
21 -54 20 -67 -4 -45 -11 10 -20 24 -20 32 0 27 -48 63 -84 63 -25 0 -43 8
-63 29 -19 19 -44 31 -74 36 -63 10 -89 29 -89 65 0 32 -23 42 -34 14 -11 -27
-7 -42 20 -73 23 -28 24 -31 7 -31 -24 0 -59 -37 -73 -75 -6 -18 -7 -56 -2
-95 10 -88 5 -109 -25 -121 -21 -8 -23 -12 -12 -25 19 -23 51 -13 72 24 17 29
18 39 8 89 -20 102 -16 131 26 170 34 32 39 34 82 28 78 -11 108 -44 99 -106
-2 -20 -8 -23 -30 -21 -57 7 -98 -43 -98 -118 0 -34 3 -41 18 -38 12 2 18 15
20 43 4 48 17 65 48 65 25 0 54 -34 54 -63 0 -44 -30 -76 -105 -112 -82 -40
-135 -79 -135 -100 0 -11 6 -11 28 2 28 16 30 15 60 -6 18 -12 32 -25 32 -29
0 -4 -16 -17 -36 -30 -33 -21 -37 -22 -53 -8 -10 9 -25 16 -33 16 -11 0 -17
14 -22 49 -6 50 -29 82 -46 65 -5 -5 -5 -28 -1 -51 5 -23 6 -45 3 -48 -10 -9
-83 -5 -105 6 -80 41 -99 102 -44 140 37 26 48 40 41 51 -9 15 -24 8 -64 -28
-32 -29 -40 -43 -40 -70 0 -66 104 -143 180 -132 24 4 30 1 30 -14 0 -42 -29
-89 -64 -103 -54 -23 -74 -20 -68 10 5 28 -28 50 -37 24 -2 -8 -19 -29 -38
-48 -30 -30 -38 -33 -77 -29 -58 7 -104 41 -128 95 -31 71 -5 153 49 153 31 0
42 -29 18 -46 -23 -17 -11 -33 13 -18 41 26 14 94 -37 94 -36 0 -68 -24 -91
-69 -10 -21 -26 -41 -34 -44 -23 -9 -69 35 -96 93 -21 44 -22 55 -12 82 14 38
8 47 -18 30 -19 -11 -20 -9 -20 38 0 27 9 74 21 105 20 53 62 115 78 115 5 0
6 -22 3 -49 -8 -87 33 -163 109 -201 57 -30 139 -21 153 15 10 27 -10 38 -47
24 -49 -17 -93 -3 -130 43 -39 49 -48 126 -19 177 29 53 43 50 26 -4 -18 -60
-8 -132 22 -161 27 -28 87 -40 120 -25 17 8 24 19 24 40 0 36 -22 55 -55 47
-32 -8 -32 -26 0 -26 16 0 25 -6 25 -15 0 -26 -49 -17 -81 14 -32 33 -34 50
-15 131 11 45 16 54 32 52 10 -2 26 -4 36 -6 24 -3 44 -23 58 -56 13 -31 40
-41 40 -15 0 26 -28 72 -56 94 -21 17 -25 26 -19 48 15 64 115 126 115 73 0
-26 23 -72 44 -89 9 -8 16 -29 16 -50 1 -34 1 -35 13 -13 l13 22 26 -27 c52
-55 53 -116 3 -143 -21 -11 -27 -11 -43 3 -24 22 -32 21 -32 -2 0 -24 36 -51
66 -51 32 0 80 45 88 80 7 40 -15 95 -57 138 l-31 32 24 17 c14 9 44 36 68 59
38 38 43 47 40 81 -2 26 -8 38 -18 38 -11 0 -14 -9 -12 -34 3 -29 -3 -40 -53
-88 -31 -30 -61 -53 -68 -50 -17 5 -57 78 -57 105 0 17 -7 24 -30 29 -30 5
-30 6 -13 25 30 33 87 57 155 64 59 6 66 4 89 -17 14 -13 30 -36 37 -51 14
-35 24 -35 57 -2 l27 27 -25 -7 c-18 -4 -30 1 -48 20 -29 32 -78 54 -118 54
-49 0 -138 -39 -179 -77 -31 -30 -49 -38 -110 -49 -40 -7 -89 -23 -107 -34
-33 -20 -75 -69 -75 -86 0 -5 7 1 15 13 25 35 70 63 119 72 25 5 46 7 46 5 0
-2 -10 -24 -22 -49 -18 -37 -28 -46 -56 -51 -21 -4 -50 -22 -73 -45 -22 -22
-39 -34 -39 -28 0 24 -90 -77 -111 -124 -21 -48 -23 -67 -24 -223 l0 -170 38
-77 c39 -78 79 -120 129 -132 16 -4 29 -16 32 -30 8 -33 68 -76 124 -90 44
-11 53 -19 129 -119 45 -59 125 -175 178 -258 128 -201 193 -286 301 -393 116
-115 324 -286 437 -360 154 -100 378 -197 568 -245 44 -11 148 -46 232 -77
202 -74 274 -84 672 -86 294 -2 319 -1 485 26 229 35 309 53 400 88 217 83
656 377 849 568 104 103 176 202 241 331 97 194 132 355 133 605 0 413 -88
757 -248 970 -138 183 -290 330 -455 441 -140 93 -513 259 -765 341 -60 20
-114 39 -119 44 -4 4 5 14 21 22 147 77 279 242 353 445 70 192 94 446 56 579
-10 34 -17 66 -15 72 2 5 54 -22 115 -62 61 -40 150 -94 198 -122 47 -27 175
-103 284 -167 114 -68 208 -118 223 -118 14 0 36 11 49 25 l24 25 -28 128
c-15 70 -55 222 -88 337 -33 116 -83 309 -109 430 -35 157 -56 229 -73 255
-13 19 -27 50 -31 67 -13 65 -133 200 -275 310 -141 110 -350 230 -515 298
-250 103 -653 149 -1055 120z m390 -144 c74 -11 205 -25 290 -31 200 -14 265
-25 365 -65 87 -34 165 -86 230 -155 22 -23 63 -53 90 -67 28 -14 75 -47 105
-73 30 -25 78 -61 105 -80 28 -18 78 -60 113 -94 53 -52 62 -65 62 -96 -1 -39
-11 -49 -108 -104 -31 -18 -102 -68 -157 -112 -120 -94 -149 -115 -195 -139
-19 -10 -48 -28 -63 -41 -41 -35 -92 -31 -183 11 -41 19 -76 35 -79 35 -2 0
-28 14 -57 32 -154 92 -299 171 -348 189 -33 13 -119 29 -215 40 -88 11 -191
25 -230 32 -38 6 -113 12 -165 12 -85 -1 -105 -5 -190 -37 -116 -45 -327 -134
-357 -151 -59 -33 -132 -89 -155 -119 -40 -53 -135 -245 -174 -353 -20 -55
-46 -125 -57 -155 -18 -51 -20 -85 -24 -500 -3 -321 -8 -473 -18 -544 -8 -55
-15 -103 -15 -108 0 -4 -17 -8 -37 -8 -48 0 -109 39 -188 122 -33 35 -78 79
-100 98 -59 52 -203 232 -273 341 -80 123 -117 215 -143 353 -19 98 -21 134
-16 316 4 160 9 221 25 280 21 80 91 256 117 293 8 12 44 65 78 117 113 170
126 187 185 241 80 74 156 130 227 169 33 18 65 36 70 40 6 4 21 11 35 15 14
4 43 15 65 25 92 41 175 74 250 100 191 67 255 90 335 120 212 79 491 97 800
51z m1473 -899 c20 -86 53 -231 71 -322 19 -91 42 -198 50 -238 9 -40 16 -77
16 -81 0 -8 -115 -91 -125 -91 -3 0 -70 41 -150 90 -79 50 -184 113 -232 142
-183 106 -252 157 -273 198 l-20 39 33 24 c29 22 94 67 367 256 102 71 211
141 220 141 3 0 22 -71 43 -158z m-1523 -17 c82 -20 184 -57 265 -96 63 -30
106 -59 327 -216 l115 -83 21 -87 c67 -281 6 -577 -152 -743 -24 -25 -55 -61
-69 -80 -32 -44 -186 -132 -231 -132 -32 -1 -262 38 -416 70 l-85 18 -5 63
c-6 72 -22 91 -80 91 -45 0 -97 -17 -103 -34 -11 -28 10 -39 62 -32 57 8 69
-2 57 -50 -6 -22 -11 -25 -34 -19 -15 4 -39 8 -54 10 -34 5 -126 51 -155 78
-33 30 -29 47 23 97 57 56 136 154 158 197 9 18 16 51 16 74 0 33 -6 47 -34
75 -29 29 -41 34 -82 34 -69 0 -146 -38 -179 -88 -53 -80 -71 -213 -40 -289
21 -51 20 -60 -25 -113 -92 -110 -120 -221 -71 -291 13 -19 38 -45 54 -59 28
-22 40 -25 117 -25 76 0 90 3 135 29 28 16 78 56 112 89 l63 60 40 -16 c22 -8
79 -37 128 -63 147 -79 348 -301 529 -582 101 -157 176 -267 200 -293 26 -29
117 -260 138 -354 33 -145 52 -437 36 -560 -21 -163 -140 -357 -253 -413 -24
-11 -104 -35 -178 -53 -121 -29 -154 -33 -327 -37 -301 -7 -472 31 -738 163
-189 94 -291 179 -371 313 -55 91 -63 134 -85 457 -16 246 -19 390 -18 796 1
279 -2 502 -7 510 -13 21 -23 620 -12 714 5 44 11 118 13 165 2 73 10 106 55
234 62 173 79 196 207 286 142 99 348 175 538 200 96 12 316 4 395 -15z m-416
-841 c23 -23 20 -54 -12 -105 -28 -43 -158 -191 -174 -197 -18 -8 -30 55 -24
122 8 92 37 144 96 174 52 26 92 28 114 6z m-109 -486 c22 -14 48 -34 58 -45
10 -11 35 -28 57 -38 22 -10 40 -23 40 -28 0 -18 -81 -86 -133 -112 -94 -46
-185 -26 -220 48 -16 33 -16 39 -1 84 17 51 42 91 83 136 l25 27 25 -24 c14
-13 44 -35 66 -48z m1050 -342 c139 -49 631 -288 715 -347 14 -9 53 -29 85
-44 49 -21 84 -50 193 -162 72 -74 132 -139 132 -143 0 -5 19 -32 43 -61 76
-96 244 -419 285 -549 26 -84 35 -241 21 -390 -5 -63 -14 -171 -18 -240 -12
-175 -39 -249 -126 -345 -20 -22 -54 -62 -75 -90 -85 -112 -431 -435 -464
-435 -4 0 -43 -23 -88 -51 -45 -29 -98 -58 -117 -66 -20 -9 -70 -37 -111 -64
-42 -27 -101 -58 -131 -70 -30 -11 -92 -37 -139 -56 -205 -84 -242 -92 -489
-99 -186 -5 -269 -2 -471 15 -479 42 -572 59 -717 130 -32 16 -101 42 -153 59
-118 37 -165 61 -259 131 -130 98 -146 109 -211 142 -79 39 -126 76 -251 195
-53 50 -115 106 -138 124 -61 50 -57 75 25 156 42 41 95 80 143 105 66 34 150
90 201 132 8 7 39 28 68 46 28 19 52 37 52 40 1 14 80 91 94 91 9 0 16 3 16 8
0 8 49 32 67 32 7 0 13 -4 13 -10 0 -24 82 -133 136 -181 80 -71 149 -114 295
-186 199 -99 384 -163 514 -180 121 -15 264 -10 378 13 38 8 92 14 121 14 109
0 275 38 391 90 61 28 143 57 184 65 108 22 164 56 202 122 16 30 44 73 60 96
52 72 58 115 61 422 l3 280 -47 132 c-57 160 -180 397 -247 476 -15 18 -33 52
-40 77 -7 25 -34 76 -60 113 -25 38 -59 90 -75 115 -15 26 -40 61 -55 77 -14
17 -44 59 -66 93 -22 35 -57 89 -77 121 -21 32 -38 61 -38 65 0 12 125 6 165
-8z m-2302 -1054 c8 -15 17 -51 20 -81 11 -91 -27 -148 -105 -158 l-43 -6 26
29 c52 57 62 104 34 158 -19 37 -19 71 1 90 20 20 48 7 67 -32z m-113 -265
l31 -14 -48 -31 c-26 -17 -50 -28 -53 -23 -3 4 -16 14 -29 23 l-24 17 39 19
c49 25 46 25 84 9z m-920 -44 c0 -22 58 -111 81 -123 10 -6 34 -10 53 -10 28
0 36 -4 36 -17 0 -10 9 -33 21 -52 20 -33 20 -35 2 -52 -25 -24 -43 -26 -84
-10 -36 14 -76 71 -110 157 -18 46 -24 124 -9 124 6 0 10 -7 10 -17z m706
-115 c4 -6 -3 -19 -16 -30 -28 -23 -34 -19 -21 16 11 28 25 33 37 14z m-186
-148 c0 -11 -28 -20 -44 -14 -8 3 -23 -11 -39 -38 -25 -43 -47 -60 -97 -74
-14 -4 -28 -11 -32 -17 -9 -15 -59 8 -97 45 -17 17 -31 33 -31 37 1 3 17 16
37 29 35 22 37 22 77 7 51 -21 116 -13 153 19 25 21 73 25 73 6z"/>
<path d="M3211 6048 c-11 -13 -29 -34 -40 -48 l-20 -25 -2 35 -2 35 -6 -35
c-4 -19 -5 -46 -2 -59 3 -21 5 -22 16 -8 6 9 30 19 53 23 41 6 42 6 43 -22 l1
-29 13 30 c17 36 19 79 5 106 -14 25 -33 24 -59 -3z m47 -30 c-3 -30 -6 -33
-40 -36 -21 -2 -38 0 -38 3 0 19 44 65 61 65 17 0 20 -6 17 -32z"/>
<path d="M3468 6040 c-7 -11 -17 -20 -23 -20 -5 0 -19 -21 -30 -47 -11 -26
-21 -51 -23 -55 -2 -4 1 -8 7 -8 6 0 24 27 41 60 17 33 35 60 40 60 6 0 10
-19 10 -42 1 -112 74 -132 109 -29 20 60 12 65 -17 10 -36 -69 -54 -70 -65 -4
-15 87 -17 95 -27 95 -5 0 -15 -9 -22 -20z"/>
<path d="M3005 6040 c-4 -6 6 -7 25 -4 37 8 40 -9 10 -58 -34 -56 -28 -68 33
-66 50 1 50 2 10 5 -49 5 -55 22 -23 63 11 14 20 35 20 48 0 19 -5 22 -34 22
-19 0 -38 -4 -41 -10z"/>
<path d="M3351 6023 c0 -12 -4 -30 -7 -40 -5 -17 -5 -17 6 0 6 10 9 28 7 40
-4 22 -4 22 -6 0z"/>
<path d="M2860 6021 c60 -8 62 -29 8 -76 -43 -37 -43 -38 22 -19 27 7 60 -4
60 -21 0 -17 -79 -65 -107 -65 -15 0 -26 11 -36 38 -18 43 -22 31 -6 -17 9
-25 16 -31 40 -31 37 0 76 20 109 55 24 26 25 27 6 41 -11 8 -28 14 -39 14
-14 0 -17 4 -12 18 5 9 8 28 9 42 1 23 -2 25 -49 26 l-50 2 45 -7z"/>
<path d="M2982 5985 c0 -11 4 -33 8 -50 7 -27 8 -27 8 -5 0 14 -4 36 -8 50 -6
20 -8 21 -8 5z"/>
<path d="M3668 5945 c-3 -11 -9 -29 -13 -40 -3 -11 1 -7 10 8 9 16 15 33 12
40 -2 6 -6 3 -9 -8z"/>
<path d="M3722 5889 c-27 -46 -19 -49 28 -9 52 45 107 35 93 -18 -6 -26 -10
-26 -43 -7 -14 8 -32 14 -40 14 -8 0 2 -9 23 -20 20 -11 37 -22 37 -26 0 -4
-12 -19 -27 -35 -42 -44 -19 -44 28 -1 34 32 42 46 43 78 1 49 -28 69 -76 53
-21 -8 -32 -8 -37 0 -3 6 -16 -7 -29 -29z"/>
<path d="M3942 5823 c-37 -7 -92 -66 -92 -100 0 -47 37 -74 111 -80 45 -5 60
-3 55 5 -4 7 -24 12 -44 12 -38 0 -102 32 -102 50 0 24 30 67 55 78 33 15 65
15 65 0 0 -9 3 -9 13 1 10 10 8 15 -7 27 -11 8 -22 13 -25 13 -3 -1 -16 -4
-29 -6z"/>
<path d="M2994 5730 c-22 -8 -22 -10 -7 -87 8 -43 19 -81 25 -84 20 -12 84 15
93 40 4 11 -1 9 -17 -6 -13 -12 -34 -23 -48 -25 -22 -3 -26 2 -36 47 -18 77
-17 103 6 110 26 8 60 -3 60 -19 0 -7 -11 -23 -25 -36 -31 -29 -32 -40 -2 -39
12 0 16 3 10 6 -9 3 -6 13 9 34 17 23 20 34 12 47 -13 20 -49 25 -80 12z"/>
<path d="M3190 5710 c-11 -7 -3 -8 28 -4 36 6 42 4 42 -12 0 -10 -19 -37 -41
-60 -23 -23 -38 -47 -35 -53 4 -6 24 -10 44 -9 l37 1 -32 4 c-18 2 -33 7 -33
10 0 3 18 26 41 50 48 53 48 77 -1 81 -19 1 -42 -2 -50 -8z"/>
<path d="M3141 5674 c0 -11 3 -14 6 -6 3 7 2 16 -1 19 -3 4 -6 -2 -5 -13z"/>
<path d="M3346 5668 c-18 -26 -21 -71 -6 -99 11 -19 35 -24 65 -13 19 8 45 56
44 81 0 10 -5 3 -10 -15 -10 -35 -47 -59 -73 -49 -19 7 -22 67 -6 98 14 26 5
24 -14 -3z"/>
<path d="M3523 5653 c-21 -8 -15 -22 23 -58 37 -35 41 -60 12 -79 -13 -8 -22
-6 -37 8 -17 15 -21 16 -21 5 0 -37 47 -51 74 -23 23 23 19 58 -10 94 -26 31
-27 31 -5 37 11 3 18 9 15 14 -6 10 -31 11 -51 2z"/>
<path d="M3645 4188 c-104 -30 -120 -39 -55 -33 30 4 78 17 105 30 62 29 42
30 -50 3z"/>
<path d="M2795 4157 c-21 -21 -33 -41 -29 -50 3 -8 32 -36 64 -61 37 -29 66
-62 80 -91 20 -42 21 -47 6 -69 -33 -51 -87 -41 -112 21 -9 19 -17 33 -20 30
-9 -9 34 -84 51 -91 51 -19 105 14 105 64 0 37 -54 115 -106 153 -24 18 -43
39 -44 49 0 15 53 68 69 68 4 0 13 -6 20 -12 11 -11 13 -10 9 2 -9 30 -56 24
-93 -13z"/>
<path d="M3259 4154 c-7 -8 -14 -40 -17 -69 -3 -34 -8 -52 -15 -48 -7 4 -8
-15 -3 -58 12 -107 26 -93 26 25 0 109 9 146 35 146 20 0 55 -58 55 -92 0 -24
-4 -27 -37 -31 l-38 -4 43 -1 42 -2 0 -52 c0 -38 3 -49 10 -38 15 23 12 112
-5 161 -26 73 -66 99 -96 63z"/>
<path d="M3420 4140 c-11 -7 -6 -10 22 -10 27 0 40 -6 48 -20 12 -22 8 -33
-23 -67 -27 -31 -35 -29 -52 10 -8 17 -14 27 -15 21 0 -19 28 -94 46 -117 l16
-22 -7 24 c-7 24 -7 24 44 18 60 -7 61 7 1 17 -22 3 -40 9 -40 12 0 3 11 20
25 38 31 41 32 70 3 90 -26 18 -46 20 -68 6z"/>
<path d="M3089 4113 c-9 -24 -27 -114 -30 -148 0 -5 -9 22 -20 60 -11 39 -26
76 -34 84 -16 16 -17 15 -30 -44 l-7 -30 -14 35 c-8 19 -12 24 -9 10 3 -14 13
-61 22 -105 9 -44 19 -84 23 -88 5 -5 6 39 3 97 -7 129 8 142 32 29 24 -114
26 -118 35 -102 5 7 11 40 15 73 8 69 25 136 35 136 8 0 24 -53 40 -135 7 -33
16 -67 21 -75 7 -11 8 -8 5 10 -3 14 -10 57 -16 97 -12 89 -25 123 -45 123 -9
0 -20 -12 -26 -27z"/>
<path d="M3610 4112 c0 -20 32 -128 41 -136 13 -14 11 -2 -12 75 -19 62 -29
83 -29 61z"/>
<path d="M3678 3614 c-16 -8 -28 -21 -28 -28 0 -8 25 -28 56 -46 68 -38 104
-72 104 -99 0 -24 -13 -33 -60 -42 l-35 -7 38 -1 c28 -1 44 5 62 24 14 13 25
29 25 35 0 22 -73 89 -120 109 -44 19 -66 41 -42 41 5 0 17 7 28 15 25 19 7
18 -28 -1z"/>
<path d="M3466 3574 c-3 -9 -6 -32 -6 -52 0 -64 -15 -67 -34 -7 -9 30 -21 57
-27 61 -5 3 -3 -11 5 -31 9 -20 23 -71 31 -113 9 -42 17 -78 19 -80 2 -1 6 18
9 44 6 54 11 60 57 69 34 6 36 4 58 -37 l22 -43 -6 40 c-4 22 -7 47 -8 55 -1
15 -6 22 -51 78 -29 34 -59 42 -69 16z m53 -33 c24 -33 27 -61 9 -61 -7 0 -23
-3 -35 -6 -21 -6 -23 -3 -23 38 0 66 16 76 49 29z"/>
<path d="M3083 3544 c-32 -16 -48 -39 -38 -55 3 -4 38 -25 77 -46 39 -20 86
-52 106 -70 29 -27 33 -35 22 -48 -14 -17 -72 -20 -101 -5 -11 6 -26 25 -33
43 -12 27 -15 28 -15 10 -2 -36 39 -74 85 -80 87 -11 112 43 49 103 -20 18
-65 50 -101 70 -62 35 -64 37 -48 55 9 11 29 19 43 19 20 0 23 2 11 10 -19 12
-19 12 -57 -6z"/>
<path d="M3275 3540 c-29 -14 -34 -19 -19 -19 17 -1 27 -17 53 -83 29 -77 50
-122 51 -106 0 3 -16 48 -35 98 -19 50 -35 93 -35 96 0 2 12 10 28 18 39 22 5
18 -43 -4z"/>
<path d="M2753 3533 c-27 -10 -10 -34 45 -62 114 -58 148 -134 89 -198 -45
-49 -114 -12 -128 70 -8 40 -8 39 -5 -12 3 -45 8 -59 30 -78 68 -58 158 8 143
103 -9 52 -49 99 -112 130 -31 14 -53 29 -51 31 3 3 20 9 38 13 l33 8 -35 0
c-19 0 -41 -2 -47 -5z"/>
<path d="M2960 3509 c0 -31 57 -195 65 -187 4 4 -53 189 -61 197 -2 2 -4 -2
-4 -10z"/>
</g>
</svg>
